<?xml version="1.0" encoding="UTF-8" standalone="no"?>
<svg
   xmlns:dc="http://purl.org/dc/elements/1.1/"
   xmlns:cc="http://creativecommons.org/ns#"
   xmlns:rdf="http://www.w3.org/1999/02/22-rdf-syntax-ns#"
   xmlns:svg="http://www.w3.org/2000/svg"
   xmlns="http://www.w3.org/2000/svg"
   xmlns:sodipodi="http://sodipodi.sourceforge.net/DTD/sodipodi-0.dtd"
   xmlns:inkscape="http://www.inkscape.org/namespaces/inkscape"
   viewBox="0 0 1600 900"
   version="1.1"
   id="svg7763"
   sodipodi:docname="Flat-Mountains-more light.svg"
   inkscape:version="0.92.4 (5da689c313, 2019-01-14)">
  <metadata
     id="metadata7769">
    <rdf:RDF>
      <cc:Work
         rdf:about="">
        <dc:format>image/svg+xml</dc:format>
        <dc:type
           rdf:resource="http://purl.org/dc/dcmitype/StillImage" />
      </cc:Work>
    </rdf:RDF>
  </metadata>
  <defs
     id="defs7767" />
  <sodipodi:namedview
     pagecolor="#ffffff"
     bordercolor="#666666"
     borderopacity="1"
     objecttolerance="10"
     gridtolerance="10"
     guidetolerance="10"
     inkscape:pageopacity="0"
     inkscape:pageshadow="2"
     inkscape:window-width="1920"
     inkscape:window-height="1001"
     id="namedview7765"
     showgrid="false"
     inkscape:zoom="0.61580177"
     inkscape:cx="925.08423"
     inkscape:cy="411.0307"
     inkscape:window-x="-9"
     inkscape:window-y="-9"
     inkscape:window-maximized="1"
     inkscape:current-layer="svg7763" />
  <rect
     fill="#fffbaa"
     width="1600"
     height="900"
     id="rect7737" />
  <g
     id="g7783"
     transform="matrix(1,0,0,-1,0,900)"
     style="opacity:0.8">
    <polygon
       id="polygon7739"
       points="539,900 1396,900 957,450 "
       style="fill:#38b065" />
    <polygon
       id="polygon7741"
       points="872.9,900 1396,900 957,450 "
       style="fill:#208669" />
    <polygon
       id="polygon7743"
       points="398,662 816,900 -60,900 "
       style="fill:#40c565" />
    <polygon
       id="polygon7745"
       points="398,662 816,900 337,900 "
       style="fill:#288862" />
    <polygon
       id="polygon7747"
       points="1552,900 876,900 1203,546 "
       style="fill:#55ce6b" />
    <polygon
       id="polygon7749"
       points="1552,900 1162,900 1203,546 "
       style="fill:#32895c" />
    <polygon
       id="polygon7751"
       points="886,900 367,900 641,695 "
       style="fill:#6ad774" />
    <polygon
       id="polygon7753"
       points="641,695 886,900 587,900 "
       style="fill:#3c8959" />
    <polygon
       id="polygon7755"
       points="1401,632 1096,900 1710,900 "
       style="fill:#80df80" />
    <polygon
       id="polygon7757"
       points="1401,632 1365,900 1710,900 "
       style="fill:#468958" />
    <polygon
       id="polygon7759"
       points="971,687 725,900 1210,900 "
       style="fill:#9ee696" />
    <polygon
       id="polygon7761"
       points="1210,900 971,687 943,900 "
       style="fill:#52885a" />
  </g>
</svg>
