<svg version="1.1" viewBox="0 0 225 225" xmlns="http://www.w3.org/2000/svg">
	<path d="m50.742 30.911c-5.0539-7.5595-4.0063-9.487 2.3474-10.272 3.2538-0.40185 9.6368 2.089 17.959 7.008l4.4142 2.6092-2.7073 3.4796c-2.3791 3.0577-4.2913 5.2591-6.7241 5.6021-5.6846-1.3581-12.158-4.5284-15.289-8.4272zm136.59 92.3c-0.24242-0.0102-0.4254 0.0341-0.54472 0.13932-1.0512 0.92692 3.1498 6.2382 10.033 13.116-0.4872 1.1426-0.81009 2.9188-0.92777 5.1815 0.14156 2.5185 1.2654 5.5791 4.3594 8.0909 0.52563 0.42673 1.0923 0.8173 1.6876 1.1769 0.0152 0.0325 0.0104 0.0905-8e-3 0.16332-2e-3 2e-3 -2e-3 5e-3 -3e-3 8e-3 -0.58891 1.2386-1.037 2.1746-1.5588 3.196-0.51919 0.92686-0.86326 1.6727-1.1931 2.2753-0.11118 0.1887-0.22762 0.39074-0.32495 0.54282-9e-3 0.0155-0.0176 0.0309-0.0267 0.0448-0.23361 0.32181-0.50336 0.63569-0.77079 0.94152-0.82476-0.89929-1.7484-1.7917-2.7912-2.6468-1.7441-1.432-3.9909-2.7577-6.7502-3.5755-0.35004-0.0988-0.70545-0.1854-1.0644-0.261-2.5343-0.53444-5.1096-0.44408-7.4692 0.17293-7.0745 2.1864-10.796 7.0345-12.479 10.112-0.97383 1.7812-1.4518 3.2313-1.584 4.2576-0.0623 0.21101-0.13127 0.40871-0.21663 0.61647-0.92079 1.5724-1.1476 2.7676-0.93405 3.3962-2e-3 0.075-6e-3 0.11866-9e-3 0.20015-2e-3 0.057-0.0375 0.21108-0.0691 0.35066-0.82394 2.1064-1.2702 4.7746-0.37518 7.7435 0.86085 1.9039 2.2988 3.4475 4.102 4.5378 1.7196 1.0399 3.6327 1.5871 5.4332 1.7373 1.1398 0.14098 2.2441 0.18461 3.2935 0.16013 1.6179 3.0456 7.3386 5.1539 7.3609 5.1527 0.75165-0.0279-3.5073-2.5339-4.2558-5.3096-0.0304-0.092-0.0474-0.18308-0.0675-0.27542 0.24211-0.11154 0.23743-0.10889 0.46624-0.21456 2.516 1.883 5.753 3.2222 5.7722 3.2232 0.94655 0.0691-3.9756-2.9574-4.4536-5.8028-3.6e-4 -2e-3 3.4e-4 -2e-3 0-7e-3 0.28009-0.86843 0.5603-1.6835 0.83829-2.4531 0.16313-0.17568 0.30246-0.34143 0.33123-0.44033 1.0743 1.5537 2.4964 2.3697 3.171 2.0624-0.0212 0.0964-0.0455 0.18885-0.0644 0.29141-0.2889 1.5806-0.16411 3.7664 0.57298 6.312 0.66628 2.2898 1.7708 4.7614 3.3657 7.2439 1.9692 3.0652 4.2275 5.4916 6.3437 7.2599 0.13913 0.13634 0.26118 0.25837 0.38617 0.38429 1.1165 1.4897 3.521 3.1676 6.5948 4.4434 4.8356 2.007 9.4907 2.2597 10.392 0.56523 0.0574-0.10844 0.0978-0.22097 0.12245-0.33945 0.0362-0.0623 0.0557-0.10916 0.10675-0.18414 0.76549-0.84838 1.6265-2.0394 2.5274-3.5627 1.8712-3.1612 3.9367-7.7386 5.328-13.141 0.31742-1.2058 0.60631-2.4661 0.83985-3.7693 0.76517-4.2702 0.81748-8.2533 0.12089-11.913-0.50203-2.6968-1.4992-4.9975-2.8178-6.818-1.5324-2.1249-3.1817-3.1144-4.43-3.4954-0.0674-0.058-0.0776-0.16061-0.0675-0.28983 0.84257-2.6059 1.1954-5.8988 0.4945-9.99-0.686-3.6291-2.1443-7.2854-4.3453-10.866-1.4227-2.3145-3.0439-4.4151-4.711-6.2848-9.4957-7.9465-17.388-13.35-19.731-13.458zm-15.779-97.196c-6.4522-1.8722-10.612-7.6117-7.5812-10.46 1.8164-1.7074 7.6304-1.1287 11.416 1.1362 3.3631 2.0123 7.4145 7.5365 6.6196 9.0261-0.76464 1.4329-6.026 1.583-10.454 0.29811zm-14.732-22.697c-6.8506 0.049296-15.197 0.52505-25.691 1.3672-22.78 1.8279-45.55 3.219-47.469 2.9004-0.70167-0.11651-1.6144 0.032556-2.0293 0.33008-0.79973 0.57341 5.7581 4.8327 15.951 10.361 3.389 1.8382 6.008 3.5133 5.8223 3.7227-0.7911 0.8915-15.246-3.9691-23.385-7.8633-17.537-8.3908-20.223-9.1777-29.016-8.5039-5.8988 0.45202-8.7827 1.0613-11.73 2.4785-5.1254 2.4641-12.202 11.09-15.074 18.373-1.8135 4.5992-2.7268 5.8045-5.209 6.873-3.5045 1.5087-9.7264 8.6554-11.787 13.539-2.394 5.6735-4.6991 15.866-5.3672 23.74-0.85836 10.116 2.2188 42.614 5.7148 60.359 4.2157 21.399 10.785 40.001 18.865 53.412l4.8633 8.0723 0.13281-0.0156c1.6646 5.2829 4.9595 15.571 8.5898 26.795 1.6203 5.0096 1.81 5.3887 2.627 5.2226 1.6707-0.33979 126.99-23.555 127.16-23.555 0.09 0-6.7562-5.3417-15.215-11.869-6.1788-4.7681-10.776-8.2022-13.453-10.086 2e-3 -2e-3 0.0607-0.0103 0.0606-0.0117-2e-3 -0.0144-0.34407-0.20364-0.48438-0.28906-1.1624-0.80758-2.0105-1.362-2.1289-1.334-2e-3 5.5e-4 -0.21426 0.0227-0.21875 0.0234-6.8466-3.7066-25.025-13.175-32.486-16.871-0.54529-0.27019-7.5626-1.0158-15.594-1.6582-28.359-2.2683-42.235-8.5627-52.762-23.932-4.2064-6.1413-5.6122-9.847-1.9219-5.0664 3.0791 3.9888 13.789 11.177 20.215 13.566 8.8124 3.2774 19.791 4.3808 30.465 3.0625 5.4047-0.66749 11.374-1.9449 14.627-3.1289 7.0214-2.5556 12.018-2.645 24.793-0.44336 15.109 2.604 24.98 3.2082 34.326 2.0996 9.3848-1.1131 12.831-2.5578 17.76-7.4473 3.7398-3.7101 7.1698-11.598 5.3047-12.197-0.65003-0.20884-6.2632-0.74435-12.475-1.1894-28.442-2.0381-55.815-9.2283-73.016-19.182-4.6041-2.6642-8.2217-3.0768-27.721-3.1562-8.2738-0.0338-16.785-0.29951-18.914-0.5918-3.7424-0.51389-10.899-3.8368-11.053-5.1309-0.04131-0.3488 3.5831-1.2991 8.0547-2.1133 8.926-1.6252 14.502-4.0414 28.045-12.15 7.2864-4.3628 8.3275-4.7496 14.744-5.4824 5.3648-0.61273 9.5553-0.38508 18.785 1.0234 18.547 2.8305 25.89 2.9882 39.266 0.8457 21.426-3.432 37.788-11.502 50.568-24.941 5.2078-5.4767 6.207-7.9653 5.5058-13.705-1.4422-11.808-8.889-24.428-17.555-29.75-7.582-4.6567-15.419-6.6124-30.49-6.5039zm40.154 59.611c-0.68424 0.156-2.6834 1.4907-4.8184 3.2441l-4.4356 3.6426 1.2383 5.207c1.5933 6.6982 2.4853 7.8855 4.3457 5.7891 0.75459-0.85033 1.6586-2.2011 2.0098-3.0039 1.0029-2.2932 2.5269-14.418 1.8691-14.871-0.0406-0.02801-0.11123-0.0301-0.20898-0.0078zm-15.639 10.854c-0.78821-0.02617-2.5191 0.824-6.1524 2.5176-3.3277 1.5511-3.5286 1.8638-3.3828 5.3008 0.2011 4.7387 2.2746 11.268 3.6504 11.496 0.592 0.0981 1.8392-0.92019 2.7715-2.2637 1.6871-2.4312 3.1163-8.1101 3.6035-14.312 0.14217-1.8095 0.29797-2.7121-0.49023-2.7383zm-15.596 7.1367c-3.0232 0.08544-11.011 1.7637-11.953 2.7344-0.79706 0.82098 2.9589 16.631 4.3594 18.35 0.70098 0.86043 1.3009 0.55822 3.0059-1.5156 1.8141-2.2064 6.0715-16.555 5.7402-19.346-0.0211-0.17827-0.45468-0.24237-1.1524-0.22266zm-68.234 0.75c-2.4152-0.0303-2.6005 0.64604-1.3867 2.9824 1.5448 2.9733 2.9952 2.9296 4.2676-0.12891 1.0703-2.5728 1.0482-2.6099-1.707-2.8008-0.43853-0.03038-0.8288-0.04841-1.1738-0.05273zm10.887 1.127c-2.3095-0.07264-2.3452 1.2376-0.52735 4.377 1.4606 2.5225 2.4767 2.365 4.6152-0.7168l1.7207-2.4785-2.7246-0.66406c-1.2907-0.31457-2.3142-0.49336-3.084-0.51758zm33.035 1.9531-4.8965 0.02148 0.57422 4.7539c0.66127 5.4712 2.1656 10.752 3.0332 10.645 0.32708-0.0403 1.4277-0.74011 2.4453-1.5566v-2e-3c1.7109-1.3728 5.2605-12.911 4.1836-13.6-0.24394-0.15595-2.6468-0.27324-5.3398-0.26172zm-20.668 0.60742c-1.1082-0.0019-1.006 0.76726 0.0293 4.9004 0.69836 2.7877 1.504 5.3314 1.791 5.6523 0.91441 1.0226 2.1638 0.43289 3-1.416 0.44607-0.98633 1.2149-3.3085 1.709-5.1602 0.89263-3.3453 0.88127-3.3665-1.6465-3.5469-1.3991-0.09983-3.3495-0.27627-4.334-0.39062-0.20852-0.02422-0.39052-0.03879-0.54882-0.03906zm-8.8145 15.275c-0.65382-0.0104-1.733 0.63991-2.5742 1.5879l-1.748 1.9688 2.627 1.8106c2.287 1.576 2.6823 1.6249 3.0547 0.37891 0.66582-2.2277 0.0827-5.226-1.1074-5.6992-0.0741-0.0295-0.15855-0.0454-0.25196-0.0469zm37.516 4.5801c-1.0871 0.13416-8.438 9.5328-8.3086 10.623 0.0562 0.4725 2.6304 1.1441 7.0117 1.8301 1.227 0.19211 1.8921-0.3805 2.4141-2.0781 1.059-3.4443 0.29424-10.549-1.1172-10.375zm-27.094 0.0156c-0.61467 0.0594-1.3427 0.7621-2.2012 2.1016-1.4594 2.2771-1.4508 2.3693 0.32812 3.2344 3.2618 1.5861 4.4083 0.85129 3.709-2.375-0.44476-2.052-1.0456-3.0373-1.8359-2.9609zm13.916 1.666c-0.63627 0.15637-2.0502 1.3623-3.3945 2.9316-2.7038 3.1564-2.7327 3.2919-0.87109 4.2051 2.5332 1.2426 4.9546 0.88863 5.459-0.79883 0.59301-1.9841-0.0147-5.9581-0.9707-6.3379-0.0567-0.0225-0.13176-0.0223-0.22266 0zm27.17 3.2168c-0.46249-0.0384-0.81539 0.19952-1.1953 0.73633-1.1531 1.6294-4.0599 8.6772-3.6758 8.9121 0.1768 0.10814 1.6692 0.28415 3.3164 0.39062 2.8491 0.18374 3.0234 0.0351 3.5996-3.0332 0.80456-4.2845 0.57507-5.7212-1.0645-6.6426-0.38546-0.21663-0.70297-0.34026-0.98047-0.36328zm15 2.2109c-0.15056-0.01-0.30451 0.0371-0.45703 0.14648-0.97426 0.69854-3.7513 7.0175-3.6094 8.2129 0.0553 0.46546 1.3219 0.6963 2.8164 0.51172 2.3641-0.29188 2.7511-0.7074 2.9766-3.1875 0.2565-2.8224-0.67258-5.6154-1.7266-5.6836z" fill="#6E4358" stroke="#000000" stroke-width=".3"/>
</svg>
