<svg version="1.1" viewBox="0 0 225 225" xmlns="http://www.w3.org/2000/svg">
	<g transform="matrix(.22232 0 0 .33603 -2.6084 -28.217)">
		<path d="m642.23 419.49c-3.7192-2.0154-6.4751-5.8915-6.9333-9.7516l-0.28003-2.3594 94.886-199.44 2.4534-1.8203c6.9715-5.1724 17.436-4.666 23.884 1.1558 2.1489 1.9404 3.2331 3.7853 3.7992 6.465 0.65072 3.08 0.22721 4.3312-5.6581 16.717l-5.4161 11.398 13.127 3.9806 1.3702-1.3855c2.7328-2.7632 7.2927-4.8779 11.334-5.2566 2.8743-0.26928 6.869 1.0081 9.0905 2.907 2.8052 2.3976 4.3482 6.3035 4.0008 10.127l-0.12647 1.3919 25.21 7.6444 0.64416-0.81954c1.1799-1.5011 4.0599-3.453 6.6124-4.4812 9.7275-3.9189 18.563 1.3545 18.39 10.976l-0.0376 2.0935 72.256 21.739 1.7419-1.6166c3.1627-2.9353 6.4672-4.3967 10.928-4.8332 2.9764-0.29122 6.944 0.96958 9.0753 2.8838 2.7349 2.4566 4.0762 5.6983 3.9569 9.5636l-0.0553 1.7796 9.5574 3.0859 5.4315-11.417c5.9061-12.414 6.6043-13.522 9.8195-15.589 2.2265-1.431 5.6953-2.5482 8.6898-2.799 9.3506-0.78283 17.52 4.6857 18.422 12.331l0.22799 1.9326-95.005 199.69-2.0636 1.5825c-2.6755 2.0517-6.4433 3.4-10.191 3.6468-3.7473 0.24675-8.345-0.81004-11.324-2.6029-4.8441-2.9151-7.3597-7.7959-6.4448-12.504 0.21152-1.0884 2.3294-5.8924 5.9872-13.581l5.6598-11.897-18.75-5.6856-2.0177 1.5388c-2.5685 1.9588-5.9746 3.36-9.0166 3.7093-2.0915 0.24015-2.7468 0.16324-5.3291-0.62552-2.4565-0.7503-3.1887-1.1198-4.419-2.2297-2.1006-1.895-3.6267-4.8712-3.8959-7.5979l-0.23053-2.3348-29.834-9.0576-1.2775 1.088c-1.7535 1.4934-6.382 3.3146-8.976 3.5319-1.5259 0.12784-2.9402-0.0229-4.891-0.52103-2.4778-0.6328-2.9304-0.86022-4.6599-2.3413-2.1852-1.8714-3.5566-4.4026-3.889-7.1779l-0.2196-1.8334-10.492-3.1815-2.1311 1.6253c-2.902 2.2132-7.002 3.6649-10.335 3.6594-6.5456-0.0108-11.633-4.3503-12.213-10.418l-0.23-2.4068-64.277-19.504-5.7773 12.143c-4.7665 10.019-6.0228 12.419-7.1807 13.72-3.166 3.557-8.9105 5.6482-14.588 5.3107-2.2149-0.13166-6.5204-1.3381-8.3889-2.3506zm105.22-19.522c3.0197-3.1199 7.2059-5.1182 11.521-5.4993 2.3426-0.20693 6.2341 0.83503 8.2928 2.2204 3.3266 2.2386 5.5574 7.8372 4.6794 11.744l-0.26256 1.1682 8.9801 2.7231 1.2478-1.5566c2.7275-3.4025 7.6404-5.9892 12.201-6.4241 3.0945-0.29507 7.0776 0.88238 9.2395 2.7314 3.0444 2.6036 4.6026 7.1076 3.8795 11.213l-0.32178 1.8268 27.975 8.6593 1.7329-1.7904c2.0191-2.086 5.6808-4.2763 8.2006-4.9053 2.9551-0.7376 4.7078-0.7513 7.5297-0.0589 2.3332 0.57256 2.9237 0.85138 4.5511 2.1492 3.2139 2.5629 5.1142 7.628 4.2174 11.241l-0.30254 1.2188 18.354 5.5656 13.152-27.645-53.625-16.261-1.2493 1.1419c-1.7103 1.5634-5.1128 3.4617-7.2387 4.0386-3.1146 0.84521-5.4178 0.84002-8.2707-0.0187-3.1915-0.96053-4.9665-2.3079-6.6477-5.046-1.1144-1.8148-2.1058-6.2362-1.625-7.2467 0.15574-0.3273-1.3107-0.85706-7.9224-2.8619l-8.1135-2.4603-0.75887 0.69533c-3.1865 2.9197-7.6432 4.8809-11.561 5.0873-2.8801 0.15176-6.6522-1.0328-8.6617-2.7202-2.1994-1.8467-3.6529-4.7554-3.9692-7.9425l-0.27288-2.7503-12.199-3.7173-1.3901 1.4055c-3.022 3.0556-8.2389 5.1344-12.584 5.0143-6.6543-0.18387-11.736-5.4318-11.606-11.985l0.04-2.0108-7.5615-2.4699-1.7565 1.575c-7.8062 6.9997-18.88 6.1622-22.7-1.7168-1.0333-2.1313-1.4238-4.0681-1.235-6.1257l0.12018-1.3096-6.2864-2.1007-13.163 27.668 63.658 19.303zm-41.336-52.101c0.10509-0.22091 1.2201-1.1577 2.4778-2.0818 2.8618-2.1027 7.0791-3.5425 10.221-3.4897 7.3022 0.12286 12.43 5.5971 12.158 12.98-0.0187 0.50689 0.50112 0.74088 4.0077 1.8042l4.0291 1.2218 1.2329-1.1892c6.8658-6.6226 18.133-6.104 22.264 1.0248 1.0658 1.8393 1.7744 4.9571 1.6354 7.1964-0.0322 0.51971 0.57986 0.76476 6.0655 2.4282 5.4881 1.6642 6.1464 1.8046 6.5489 1.3969 4.8622-4.9251 11.38-7.1096 16.612-5.5679 4.9672 1.4636 7.8721 4.8108 8.506 9.8011 0.1965 1.5469 0.23863 3.0618 0.0936 3.3666-0.24999 0.52545 0.14282 0.67739 7.5893 2.9354l7.8529 2.3813 1.3702-1.3855c1.6908-1.7095 5.2834-3.8529 7.5072-4.4787 9.2422-2.601 17.352 3.1285 16.837 11.895l-0.10207 1.7358 53.356 16.179 6.2264-13.087 6.2265-13.087-11.604-3.5187c-9.0375-2.7405-11.643-3.4374-11.779-3.1512-0.42454 0.89054-4.3137 3.4651-6.5865 4.3601-6.3837 2.5138-12.964 0.95174-16.033-3.8059-1.5188-2.3548-2.1719-4.432-2.1088-6.7064l0.0489-1.752-43.115-13.066-1.9598 1.6879c-2.6581 2.2893-6.436 3.8292-10.069 4.104-2.4932 0.18861-3.0752 0.11519-5.2518-0.66258-1.5518-0.5545-2.9514-1.3019-3.8232-2.0418-2.5351-2.1513-4.1634-6.0324-4.1196-9.8189l0.0106-0.92221-15.418-4.6754-1.7018 1.7555c-5.2896 5.4566-13.474 6.9848-19.142 3.5741-3.6196-2.1781-5.8702-6.7743-5.4175-11.063l0.22805-2.1605-39.242-11.899-12.453 26.175 3.3154 1.0054c2.5565 0.77522 3.3592 0.91341 3.5065 0.60372zm51.619-25.741c5.9586-4.5168 13.787-4.7731 18.592-0.60878 2.2501 1.9501 3.661 4.8076 3.8391 7.7753l0.12924 2.1542 15.986 4.8476 0.70648-0.87949c2.3071-2.872 7.6305-5.5278 11.697-5.8356 3.1139-0.23568 7.4042 1.1192 9.4987 2.9997 2.5984 2.333 4.2082 6.63 3.7751 10.077l-0.17243 1.3723 42.645 12.931 0.70527-0.87986c2.5261-3.1516 8.9241-6.0094 13.135-5.8671 7.2567 0.24528 12.521 6.0573 11.879 13.116l-0.12651 1.3919 22.723 6.8904 12.944-27.204-9.9575-2.8156-0.67227 0.87208c-2.1417 2.7785-7.5256 5.3746-11.691 5.6375-3.4001 0.21458-6.8018-0.81618-9.0687-2.7479-2.7743-2.3642-4.6379-7.2929-3.9678-10.494l0.20159-0.9632-9.6424-2.7367-1.6469 1.5198c-2.146 1.9804-4.1263 3.1346-6.8991 4.021-2.8402 0.90803-4.5533 1.0648-7.0959 0.64921-3.9944-0.65287-7.0887-2.9003-8.7713-6.3709-0.94587-1.9509-1.4779-5.1278-1.1339-6.7712l0.18934-0.90559-15.614-4.7346-1.39 1.4055c-1.7555 1.775-5.4887 3.9126-7.8971 4.5219-9.122 2.3076-16.818-3.1912-16.454-11.756l0.083-1.9516-53.912-16.348-1.3703 1.3855c-1.6908 1.7095-5.2834 3.8529-7.5071 4.4787-9.455 2.6609-17.383-3.1834-16.81-12.391l0.0771-1.2386-6.2053-1.8817-12.873 27.057 39.734 12.049zm-17.279-45.18c1.9599-1.8271 5.844-3.7209 8.677-4.2308 5.745-1.0339 10.598 0.92841 13.34 5.3936 1.1143 1.8148 2.1058 6.2362 1.625 7.2467-0.15978 0.33584 4.2949 1.7619 27.195 8.706l27.386 8.3044 0.95782-0.99738c1.3653-1.4217 5.153-3.5626 7.3644-4.1626 3.2285-0.87585 5.5112-0.88159 8.3973-0.0211 3.3459 0.9976 5.5828 2.8326 7.0038 5.7453 0.92784 1.9019 1.6547 5.7342 1.2494 6.5877-0.1344 0.28304 1.6944 0.93443 7.9414 2.8287 7.403 2.2448 8.156 2.4215 8.5731 2.0107 2.721-2.6799 7.3189-4.8562 11.164-5.2844 2.0397-0.22709 2.7679-0.14479 5.136 0.58044 2.2777 0.69752 3.0341 1.0896 4.3329 2.2459 2.1926 1.9519 3.5414 4.6983 3.8587 7.8566l0.26931 2.6806 4.8888 1.4916c4.3363 1.323 4.9401 1.4406 5.3427 1.0403 2.9301-2.9137 7.5906-5.0548 11.527-5.2958 7.6384-0.46761 13.522 5.2776 13.058 12.751-0.0316 0.5128 0.52667 0.74864 4.9488 2.0896l4.9847 1.5115 6.2264-13.087 6.2264-13.087-9.877-2.9951-1.2328 1.1892c-5.1934 5.0094-13.837 6.1549-19.185 2.5426-2.8035-1.8935-4.8114-5.8452-4.7984-9.4431l8e-3 -1.9329-36.425-11.045c-28.894-8.7617-36.461-10.969-36.6-10.678-0.44272 0.92879-4.3771 3.4963-6.7767 4.4224-3.717 1.4345-6.3978 1.5944-9.7398 0.58092-2.1992-0.66686-2.9324-1.0586-4.4615-2.3838-2.7095-2.3482-4.1108-5.937-3.9032-9.996 0.0278-0.5374-0.90416-0.86312-12.703-4.4408-11.801-3.5784-12.765-3.8278-13.186-3.4096-1.602 1.593-4.7461 3.5978-6.8941 4.3958-3.4698 1.2892-6.3833 1.4149-9.6729 0.41735-3.2608-0.9888-5.3174-2.5987-6.7799-5.3073-0.9561-1.7708-1.8364-6.2633-1.4049-7.1702 0.13874-0.29161-1.3495-0.83938-6.6362-2.4425l-6.815-2.0666-12.453 26.175 6.4853 1.9666z" fill="#4d4d4d" stroke-width=".35209"/>
		<path d="m184.99 177.14c-15.862-21.489-12.574-26.968 7.3673-29.2 10.212-1.1423 30.245 5.9383 56.364 19.921l13.854 7.4171-8.4968 9.8914c-7.4668 8.692-13.468 14.95-21.104 15.925-17.841-3.8606-38.158-12.873-47.984-23.956zm428.69 262.38c-0.76083-0.0298-1.3351 0.0968-1.7096 0.39608-3.2992 2.6349 9.8856 17.733 31.489 37.284-1.5291 3.248-2.5425 8.2972-2.9118 14.729 0.44429 7.1592 3.9715 15.86 13.682 23 1.6497 1.2131 3.4282 2.3233 5.2965 3.3455 0.0478 0.0923 0.0311 0.25717-0.0233 0.46429-8e-3 7e-3 -8e-3 0.0149-8e-3 0.0223-1.8483 3.5209-3.2546 6.1816-4.8923 9.0851-1.6295 2.6347-2.7094 4.7549-3.7446 6.4679-0.34909 0.53642-0.71438 1.1107-1.0198 1.5431-0.0272 0.0439-0.0552 0.0878-0.084 0.12728-0.7332 0.91478-1.5798 1.807-2.4191 2.6764-2.5885-2.5564-5.4874-5.0932-8.7602-7.524-5.4738-4.0707-12.525-7.8392-21.185-10.164-1.0986-0.28099-2.214-0.52704-3.3406-0.74194-7.9539-1.5192-16.036-1.2624-23.442 0.49158-22.203 6.2152-33.883 19.997-39.165 28.745-3.0564 5.0634-4.5565 9.1855-4.9714 12.103-0.19553 0.59984-0.41202 1.1618-0.67989 1.7524-2.8899 4.4698-3.6017 7.8674-2.9315 9.6542-8e-3 0.21326-0.0194 0.33719-0.0272 0.56895-8e-3 0.1619-0.11778 0.60003-0.21691 0.99681-2.5859 5.9878-3.9866 13.573-1.1775 22.012 2.7018 5.4122 7.2148 9.8001 12.874 12.899 5.397 2.9561 11.401 4.5116 17.052 4.9386 3.5772 0.40076 7.0431 0.52477 10.337 0.45521 5.0778 8.6576 23.032 14.651 23.102 14.647 2.359-0.0793-11.008-7.203-13.357-15.093-0.0956-0.26164-0.14889-0.52045-0.21186-0.78291 0.75986-0.3171 0.74516-0.30966 1.4633-0.60993 7.8964 5.3527 18.056 9.1596 18.116 9.1624 2.9708 0.19651-12.477-8.4069-13.978-16.495-1e-3 -7e-3 1e-3 -7e-3 0-0.0186 0.87908-2.4687 1.7585-4.7856 2.631-6.9734 0.51197-0.49939 0.94925-0.97057 1.0396-1.2517 3.3717 4.4166 7.8349 6.7363 9.9522 5.8627-0.0665 0.27393-0.14267 0.53683-0.20214 0.82836-0.90669 4.4931-0.51504 10.707 1.7983 17.943 2.0911 6.5091 5.5577 13.535 10.563 20.592 6.1803 8.7133 13.268 15.611 19.91 20.637 0.43666 0.38755 0.81972 0.73446 1.212 1.0924 3.5041 4.2347 11.051 9.0044 20.698 12.631 15.176 5.7052 29.786 6.4236 32.615 1.6068 0.17999-0.30816 0.3071-0.62813 0.38446-0.96495 0.11351-0.17716 0.17493-0.3104 0.33509-0.52343 2.4025-2.4117 5.1047-5.7973 7.9322-10.128 5.8728-8.9862 12.355-21.998 16.722-37.355 0.99621-3.4277 1.9029-7.0103 2.6358-10.715 2.4015-12.139 2.5657-23.461 0.3794-33.865-1.5756-7.6661-4.7052-14.206-8.8437-19.381-4.8094-6.0404-9.9857-8.8532-13.904-9.9362-0.21147-0.16487-0.24373-0.45655-0.21186-0.82386 2.6444-7.4077 3.7518-16.768 1.552-28.398-2.153-10.316-6.7299-20.71-13.638-30.888-4.4652-6.5793-9.5533-12.551-14.785-17.866-29.802-22.589-54.572-37.95-61.926-38.257zm-49.522-276.3c-20.25-5.322-33.306-21.637-23.794-29.734 5.7008-4.8536 23.948-3.2085 35.829 3.2298 10.555 5.7203 23.27 21.424 20.776 25.658-2.3998 4.0732-18.913 4.5-32.81 0.84746zm-46.236-64.52c-21.501 0.13994-47.696 1.4926-80.631 3.8865-71.495 5.1961-142.96 9.1505-148.98 8.2449-2.2022-0.33124-5.0668 0.0927-6.369 0.9383-2.5099 1.63 18.072 13.738 50.062 29.453 10.636 5.2254 18.856 9.9871 18.273 10.582-2.4828 2.5342-47.85-11.283-73.394-22.353-55.04-23.852-63.47-26.089-91.067-24.174-18.513 1.285-27.564 3.0169-36.815 7.0456-16.086 7.0046-38.296 31.525-47.31 52.228-5.6916 13.074-8.5581 16.5-16.348 19.538-10.999 4.2887-30.526 24.604-36.993 38.487-7.5136 16.128-14.748 45.102-16.845 67.485-2.6939 28.756 6.9637 121.14 17.936 171.58 13.231 60.83 33.849 113.71 59.208 151.83l15.263 22.947 0.41684-0.0443c5.2243 15.018 15.565 44.263 26.959 76.169 5.0853 14.241 5.6807 15.318 8.2448 14.846 5.2435-0.96589 398.56-66.959 399.09-66.959 0.28261 0-21.204-15.185-47.752-33.74-19.392-13.554-33.82-23.316-42.222-28.671 8e-3 -7e-3 0.19048-0.0298 0.19009-0.0335-8e-3 -0.0409-1.0799-0.57886-1.5202-0.8217-3.6482-2.2957-6.3099-3.8717-6.6816-3.7921-8e-3 2e-3 -0.67243 0.0644-0.68654 0.0666-21.488-10.537-78.541-37.452-101.96-47.958-1.7114-0.76803-23.735-2.8876-48.942-4.7137-89.005-6.448-132.55-24.341-165.59-68.031-13.202-17.458-17.614-27.992-6.0319-14.402 9.6637 11.339 43.277 31.772 63.445 38.564 27.658 9.3166 62.114 12.453 95.614 8.7057 16.963-1.8974 35.697-5.5287 45.907-8.8944 22.037-7.2647 37.718-7.5188 77.813-1.2603 47.42 7.4023 78.4 9.1198 107.73 5.9684 29.454-3.1642 40.27-7.271 55.74-21.17 11.737-10.547 22.502-32.969 16.649-34.672-2.0401-0.59367-19.657-2.116-39.153-3.3811-89.265-5.7936-175.18-26.233-229.16-54.528-14.45-7.5734-25.804-8.7463-87.002-8.972-25.967-0.096-52.68-0.8514-59.361-1.6823-11.745-1.4608-34.206-10.907-34.69-14.585-0.12945-0.99152 11.246-3.6929 25.28-6.0074 28.014-4.6199 45.514-11.488 88.019-34.538 22.868-12.402 26.136-13.502 46.274-15.585 16.837-1.7418 29.989-1.0946 58.957 2.9092 58.21 8.0462 81.256 8.4944 123.24 2.404 67.245-9.756 118.6-32.696 158.71-70.899 16.345-15.568 19.481-22.643 17.28-38.959-4.5262-33.566-27.898-69.44-55.096-84.569-23.796-13.237-48.392-18.797-95.693-18.488zm126.02 169.45c-2.1475 0.44345-8.4218 4.2375-15.122 9.2219l-13.921 10.355 3.8864 14.802c5.0006 19.041 7.8001 22.416 13.639 16.456 2.3683-2.4172 5.2055-6.257 6.3078-8.5391 3.1476-6.5188 7.9307-40.985 5.8662-42.273-0.1275-0.0797-0.34908-0.0856-0.65587-0.0223zm-49.083 30.854c-2.4738-0.0744-7.9062 2.3424-19.309 7.1566-10.444 4.4092-11.074 5.2982-10.617 15.068 0.63115 13.471 7.1388 32.031 11.457 32.679 1.858 0.27876 5.7723-2.6158 8.6983-6.4349 5.295-6.9111 9.7805-23.054 11.31-40.684 0.44623-5.1438 0.93518-7.7096-1.5386-7.7841zm-48.948 20.287c-9.4883 0.24304-34.558 5.0136-37.514 7.773-2.5016 2.3338 9.2865 47.276 13.682 52.163 2.2 2.4459 4.0828 1.5868 9.434-4.3083 5.6935-6.272 19.055-47.06 18.016-54.994-0.0661-0.50676-1.427-0.68898-3.6168-0.63293zm-214.15 2.132c-7.5801-0.086-8.1617 1.8365-4.3522 8.478 4.8483 8.452 9.4004 8.3279 13.394-0.3666 3.3591-7.3136 3.2898-7.4191-5.3574-7.9618-1.3763-0.0863-2.6012-0.1377-3.684-0.14998zm34.169 3.2037c-7.2483-0.20656-7.3604 3.5181-1.6551 12.442 4.5841 7.1706 7.7731 6.7229 14.485-2.0376l5.4004-7.0456-8.5511-1.8877c-4.0508-0.8942-7.2631-1.4024-9.6791-1.4713zm103.68 5.552-15.368 0.061 1.8022 13.514c2.0754 15.553 6.7968 30.564 9.5197 30.26 1.0265-0.11463 4.4808-2.1039 7.6746-4.4249v-7e-3c5.3697-3.9024 16.51-36.702 13.13-38.66-0.76561-0.4433-8.307-0.7767-16.759-0.74399zm-64.866 1.7267c-3.4781-7e-3 -3.1573 2.181 0.0921 13.93 2.1918 7.9245 4.7203 15.155 5.621 16.068 2.8699 2.9069 6.7911 1.2305 9.4155-4.0252 1.4-2.8038 3.813-9.405 5.3637-14.669 2.8015-9.5096 2.7658-9.5698-5.1676-10.083-4.3911-0.28361-10.512-0.78534-13.602-1.1104-0.65443-0.0689-1.2256-0.11017-1.7225-0.11091zm-27.664 43.422c-2.052-0.0298-5.439 1.819-8.0791 4.5138l-5.4861 5.5966 8.2448 5.1469c7.1777 4.48 8.4184 4.619 9.5872 1.0771 2.0896-6.3326 0.25967-14.856-3.4756-16.201-0.23246-0.0837-0.49758-0.12914-0.79076-0.13324zm117.74 13.02c-3.4119 0.38138-26.483 27.098-26.076 30.198 0.17649 1.3432 8.2555 3.2523 22.006 5.2024 3.8509 0.5461 5.9383-1.0816 7.5766-5.9074 3.3237-9.791 0.92348-29.987-3.5063-29.493zm-85.034 0.0443c-1.9291 0.16897-4.214 2.1664-6.9085 5.9741-4.5803 6.473-4.5533 6.7351 1.0298 9.1943 10.237 4.5087 13.835 2.4199 11.641-6.7513-1.3959-5.8331-3.2816-8.634-5.7619-8.4168zm43.675 4.7358c-1.997 0.44454-6.4346 3.8726-10.654 8.3336-8.4858 8.9726-8.5766 9.3578-2.7339 11.954 7.9504 3.5323 15.55 2.5261 17.133-2.2708 1.8612-5.6401-0.0463-16.937-3.0466-18.016-0.17804-0.064-0.41353-0.0633-0.69879 0zm85.273 9.1443c-1.4515-0.10905-2.5591 0.56716-3.7514 2.0931-3.619 4.6318-12.742 24.666-11.536 25.334 0.55488 0.30742 5.2388 0.80774 10.408 1.1104 8.9419 0.52232 9.4889 0.0997 11.297-8.6223 2.5251-12.179 1.8048-16.263-3.3409-18.883-1.2098-0.61581-2.2063-0.96726-3.0772-1.0327zm47.077 6.2848c-0.47251-0.0298-0.9557 0.10533-1.4344 0.4164-3.0577 1.9857-11.773 19.948-11.328 23.346 0.17338 1.3231 4.1488 1.9793 8.8393 1.4546 7.4197-0.8297 8.6343-2.0109 9.342-9.061 0.80503-8.0232-2.1109-15.963-5.4189-16.157z" fill="#ccc" stroke="#ccc" stroke-width="2.603"/>
	</g>
</svg>
